<svg xmlns="http://www.w3.org/2000/svg" width="68.441" height="78.524" viewBox="0 0 68.441 78.524">
  <g id="Group_21" data-name="Group 21" transform="translate(-157.916 -126.002)">
    <g id="Group_12" data-name="Group 12" transform="translate(157.916 126.002)">
      <path id="Path_40" data-name="Path 40" d="M259.862,182.328q.028-1.048.028-1.572a15.006,15.006,0,0,0-.85-5.326,12.19,12.19,0,0,0-2.013-3.405,38.656,38.656,0,0,0-3.671-3.652,17.643,17.643,0,0,1-3.445-3.827,6.3,6.3,0,0,1-.794-3.114,7.35,7.35,0,0,1,2.325-5.37,7.769,7.769,0,0,1,5.7-2.313,7.551,7.551,0,0,1,5.444,2.1q2.184,2.1,2.864,6.548l5.245-.64q-.709-5.965-4.21-9.138a13.262,13.262,0,0,0-9.257-3.172q-6.1,0-9.725,3.405a10.883,10.883,0,0,0-3.629,8.236,10.646,10.646,0,0,0,1.276,5.151,24.22,24.22,0,0,0,4.99,5.733,25.68,25.68,0,0,1,3.261,3.347,7.55,7.55,0,0,1,1.134,2.474,21.254,21.254,0,0,1,.425,4.54Z" transform="translate(-243.871 -149.442)" fill="#fff"/>
    </g>
    <path id="Path_41" data-name="Path 41" d="M269.686,222.307l-.166.084a7.739,7.739,0,0,1-7.111-.053l-.06-.032-.253-.519a4.6,4.6,0,0,1,0-4.025l.253-.519h7.338l.185.461a5.563,5.563,0,0,1,0,4.139Z" transform="translate(-94.624 -56.535)" fill="#fff"/>
    <path id="Path_42" data-name="Path 42" d="M270.313,263.454l-5.191,4.605-5.279-4.678,2.816-31.8h4.927Z" transform="translate(-93.751 -63.533)" fill="#fff"/>
    <g id="Group_13" data-name="Group 13" transform="translate(187.273 172.831)">
      <path id="Path_43" data-name="Path 43" d="M301.707,245.456a1.562,1.562,0,0,0,1.719,1.285c1.112,0,1.537-.556,1.537-1.216,0-.686-.3-1.112-1.642-1.442-1.285-.321-1.841-.738-1.841-1.616,0-.8.582-1.546,1.885-1.546a1.782,1.782,0,0,1,1.981,1.555h-.486a1.358,1.358,0,0,0-1.52-1.121c-.877,0-1.354.408-1.354,1.086s.4.93,1.52,1.208c1.711.425,1.963,1.111,1.963,1.841,0,.894-.652,1.667-2.059,1.667a1.949,1.949,0,0,1-2.188-1.7Z" transform="translate(-301.221 -240.922)" fill="#fff"/>
      <path id="Path_44" data-name="Path 44" d="M312.115,241.091h.469v2.65h3.648v-2.65h.469v6.08h-.469v-3h-3.648v3h-.469Z" transform="translate(-306.538 -241.004)" fill="#fff"/>
      <path id="Path_45" data-name="Path 45" d="M324.482,245.069l-.773,2.1h-.478l2.232-6.08h.556l2.328,6.08h-.512l-.791-2.1Zm2.406-.434c-.678-1.806-1.025-2.675-1.147-3.083h-.009c-.148.46-.539,1.537-1.086,3.083Z" transform="translate(-311.964 -241.004)" fill="#fff"/>
      <path id="Path_46" data-name="Path 46" d="M339.488,247.089H339.1a4.58,4.58,0,0,1-.06-.973,1.976,1.976,0,0,1-1.963,1.042c-1.746,0-2.64-1.329-2.64-3.057,0-1.816.955-3.179,2.736-3.179a2.177,2.177,0,0,1,2.372,1.807h-.469a1.81,1.81,0,0,0-1.92-1.372c-1.52,0-2.214,1.181-2.214,2.719,0,1.39.669,2.649,2.154,2.649,1.52,0,1.946-.99,1.946-2.336v-.07h-1.963v-.434h2.415Z" transform="translate(-317.432 -240.922)" fill="#fff"/>
      <path id="Path_47" data-name="Path 47" d="M347.382,241.091h.469v2.65H351.5v-2.65h.469v6.08H351.5v-3h-3.648v3h-.469Z" transform="translate(-323.752 -241.004)" fill="#fff"/>
      <path id="Path_48" data-name="Path 48" d="M363.408,244.183h-3.1v2.553h3.4l-.07.435h-3.8v-6.08h3.726v.434h-3.257v2.224h3.1Z" transform="translate(-329.832 -241.004)" fill="#fff"/>
      <path id="Path_49" data-name="Path 49" d="M370.21,244.331v2.84h-.478v-6.08h2.18c1.2,0,1.833.643,1.833,1.6a1.376,1.376,0,0,1-1.137,1.425c.625.148,1.042.556,1.042,1.589v.235a4.048,4.048,0,0,0,.078,1.233h-.478a4.075,4.075,0,0,1-.087-1.268v-.156c0-1-.3-1.416-1.459-1.416Zm0-.434h1.468c1.068,0,1.563-.4,1.563-1.2,0-.747-.486-1.173-1.433-1.173h-1.6Z" transform="translate(-334.661 -241.004)" fill="#fff"/>
    </g>
    <g id="Group_14" data-name="Group 14" transform="translate(186.866 150.872)">
      <path id="Path_50" data-name="Path 50" d="M301.876,221.508h2.757v-1.451h-2.757v-7.69h-1.451v9.141" transform="translate(-300.425 -205.026)" fill="#fff"/>
      <rect id="Rectangle_8" data-name="Rectangle 8" width="3.817" height="1.247" transform="translate(0 19.676) rotate(-90)" fill="#fff"/>
      <path id="Path_51" data-name="Path 51" d="M307.145,215.474a.706.706,0,0,1,.523-.2h4.44a6.66,6.66,0,0,1-1.771-2.22,5.6,5.6,0,0,1-.638-2.481,4.074,4.074,0,0,1,.232-1.378,3.044,3.044,0,0,1,.725-1.146,3.352,3.352,0,0,1,1.262-.769,5.391,5.391,0,0,1,1.814-.275,5.812,5.812,0,0,1,1.872.319,6.688,6.688,0,0,1,1.784.929l-.377,1.306a6.214,6.214,0,0,0-1.582-.8,5.286,5.286,0,0,0-1.727-.3,2.645,2.645,0,0,0-1.973.609,2.1,2.1,0,0,0-.581,1.509,3.915,3.915,0,0,0,.3,1.437,5.873,5.873,0,0,0,2.09,2.626,3.825,3.825,0,0,0,1.494.638h2.786v1.451H307.668a.739.739,0,0,1-.523-1.248Zm7.283-11.462-1.016,1.016-1.451-1.422,1.045-1.045Z" transform="translate(-303.606 -200.24)" fill="#fff"/>
      <path id="Path_52" data-name="Path 52" d="M337.585,213.971h2.757v1.451h-4.208V199.9h1.451Z" transform="translate(-317.855 -198.939)" fill="#fff"/>
      <path id="Path_53" data-name="Path 53" d="M346.86,205.368h1.451v7.69h4.643v-7.69H354.4v7.69h3.918a.719.719,0,0,0,.508-.2.681.681,0,0,0,.218-.522v-6.964H360.5v6.964a2.083,2.083,0,0,1-.639,1.553,2.121,2.121,0,0,1-1.538.623H343.378a.726.726,0,1,1,0-1.451h3.482Zm6.326-2.989-1.016,1.016-1.451-1.422,1.045-1.044Zm1.6-2.9-1.016,1.016-1.451-1.422,1.045-1.045Zm1.886,2.9-1.016,1.016-1.451-1.422,1.045-1.044Z" transform="translate(-321.036 -198.026)" fill="#fff"/>
    </g>
  </g>
</svg>
